<svg width="1682" height="2664" viewBox="0 0 1682 2664" fill="none" xmlns="http://www.w3.org/2000/svg">
<path d="M717.82 2025.12L434 2308.15C768.277 2415.08 1011.1 2383.63 1276 2327.02C1221.34 2272.51 1085.53 2135.82 979.566 2025.12C873.606 1914.42 760.919 1979 717.82 2025.12Z" fill="#516BA8"/>
<path d="M1126.81 1296.42C2094.87 2154.36 1592.43 2664 1153 2664H844.742C1192.35 2644.32 1662.89 2250.28 852.5 1583C-187.047 727.036 -210.003 179.35 472.098 25.2106L746.362 1C45.8975 200.397 528.833 779.348 857.859 1043.9L1126.81 1296.42Z" fill="#516BA8"/>
<path d="M962.053 371.943C1214.02 371.951 1276.73 430.905 1276.73 470.222C1374.65 158.99 1086.1 22.9185 937.5 0H469C-52.1876 0 -33.7637 447.319 50.3697 657C-4.69943 334.604 368.749 369.75 555.59 371.934C598.203 371.934 709.653 371.935 962.053 371.943Z" fill="#658ADF"/>
<path d="M555.191 1296.42C-412.867 2154.36 89.572 2664 529.001 2664H837.258C489.649 2644.32 26.8634 2232.63 837.258 1565.35L1136.81 1296.42C1842.5 708.5 1756.5 56 1193 1H935.638C1636.1 200.397 1153.17 779.348 824.141 1043.9L555.191 1296.42Z" fill="#749FFF"/>
<path d="M743.99 2283.74C491.78 2283.73 394.653 2211.63 394.653 2172.3C335.593 2490.26 633.082 2641.07 781.828 2664H1195.25C1755 2610 1706.02 2142.79 1621.8 1933C1676.92 2255.56 1337.88 2285.94 1150.85 2283.75C1108.2 2283.75 996.638 2283.75 743.99 2283.74Z" fill="#658ADF"/>
</svg>
